<svg xmlns="http://www.w3.org/2000/svg" viewBox="0 0 96 96" role="img" aria-labelledby="title desc">
  <title id="title">PeakPick logo</title>
  <desc id="desc">Green PeakPick icon with a stylized P monogram and a double-edge accent.</desc>
  <rect width="96" height="96" rx="22" fill="#24745f"/>
  <path d="M50 18h5c18 0 31 10.2 31 26s-13 26-31 26h-6" fill="none" stroke="#f2bd3a" stroke-width="7" stroke-linecap="round" stroke-linejoin="round"/>
  <path d="M56 31.5c8 0 14 4.5 14 12.5S64 56.5 56 56.5h-7" fill="none" stroke="#f2bd3a" stroke-width="4.5" stroke-linecap="round" stroke-linejoin="round"/>
  <path fill="#fffdf7" fill-rule="evenodd" d="M22 18h23c18.3 0 31.5 10.2 31.5 26S63.3 70 45 70h-8v16H22V18Zm15 14v24h8.5c9 0 15.5-4.6 15.5-12s-6.5-12-15.5-12H37Z"/>
</svg>
